<svg width="54" height="54" viewBox="0 0 54 54" fill="none" xmlns="http://www.w3.org/2000/svg">
<rect x="27" y="30" width="3" height="3" fill="white"/>
<rect x="27" y="33" width="3" height="3" fill="#E196A4"/>
<rect x="27" y="36" width="3" height="3" fill="#E196A4"/> 
<rect x="27" y="15" width="3" height="3" fill="#B1A092"/>
<rect x="27" y="39" width="3" height="3" fill="#8B8B8B"/>
<rect x="27" y="18" width="3" height="3" fill="white"/>
<rect x="27" y="42" width="3" height="3" fill="white"/>
<rect x="27" y="21" width="3" height="3" fill="white"/>
<rect x="27" y="45" width="3" height="3" fill="white"/>
<rect x="27" y="24" width="3" height="3" fill="white"/>
<rect x="27" y="27" width="3" height="3" fill="white"/>
<rect x="30" y="30" width="3" height="3" fill="white"/>
<rect x="6" y="30" width="3" height="3" fill="#B1A092"/>
<rect x="6" y="9" width="3" height="3" fill="#B1A092"/>
<rect x="30" y="33" width="3" height="3" fill="#E196A4"/>
<rect x="6" y="33" width="3" height="3" fill="white"/>
<rect x="6" y="12" width="3" height="3" fill="#B1A092"/>
<rect x="30" y="36" width="3" height="3" fill="white"/>
<rect x="6" y="36" width="3" height="3" fill="#EBEBEB"/>
<rect x="6" y="15" width="3" height="3" fill="#B1A092"/>
<rect x="30" y="15" width="3" height="3" fill="#B1A092"/>
<rect x="30" y="39" width="3" height="3" fill="#8B8B8B"/>
<rect x="6" y="39" width="3" height="3" fill="white"/>
<rect x="6" y="18" width="3" height="3" fill="#B1A092"/>
<rect x="30" y="18" width="3" height="3" fill="#B1A092"/>
<rect x="30" y="42" width="3" height="3" fill="white"/>
<rect x="6" y="21" width="3" height="3" fill="#B1A092"/>
<rect x="30" y="21" width="3" height="3" fill="white"/>
<rect x="30" y="45" width="3" height="3" fill="white"/>
<rect x="6" y="45" width="3" height="3" fill="#EBEBEB"/>
<rect x="6" y="24" width="3" height="3" fill="#B1A092"/>
<rect x="30" y="24" width="3" height="3" fill="white"/>
<rect x="6" y="27" width="3" height="3" fill="#B1A092"/>
<rect x="30" y="27" width="3" height="3" fill="white"/>
<rect x="9" y="6" width="3" height="3" fill="#B1A092"/>
<rect x="33" y="30" width="3" height="3" fill="white"/>
<rect x="9" y="30" width="3" height="3" fill="#B1A092"/>
<rect x="9" y="9" width="3" height="3" fill="#B1A092"/>
<rect x="33" y="33" width="3" height="3" fill="white"/>
<rect x="9" y="33" width="3" height="3" fill="white"/>
<rect x="9" y="12" width="3" height="3" fill="#E196A4"/>
<rect x="33" y="12" width="3" height="3" fill="#B1A092"/>
<rect x="33" y="36" width="3" height="3" fill="#EBEBEB"/>
<rect x="9" y="36" width="3" height="3" fill="#EBEBEB"/>
<rect x="9" y="15" width="3" height="3" fill="#EAB2B6"/>
<rect x="33" y="15" width="3" height="3" fill="#B1A092"/>
<rect x="33" y="39" width="3" height="3" fill="white"/>
<rect x="9" y="39" width="3" height="3" fill="white"/>
<rect x="9" y="18" width="3" height="3" fill="#B1A092"/>
<rect x="33" y="18" width="3" height="3" fill="#B1A092"/>
<rect x="33" y="42" width="3" height="3" fill="#8B8B8B"/>
<rect x="9" y="42" width="3" height="3" fill="#EBEBEB"/>
<rect x="9" y="21" width="3" height="3" fill="#B1A092"/>
<rect x="33" y="21" width="3" height="3" fill="#726052"/>
<rect x="33" y="45" width="3" height="3" fill="white"/>
<rect x="9" y="24" width="3" height="3" fill="#B1A092"/>
<rect x="33" y="24" width="3" height="3" fill="#1E121C"/>
<rect x="9" y="27" width="3" height="3" fill="#B1A092"/>
<rect x="33" y="27" width="3" height="3" fill="#4865FF"/>
<rect x="36" y="30" width="3" height="3" fill="white"/>
<rect x="12" y="30" width="3" height="3" fill="white"/>
<rect x="12" y="9" width="3" height="3" fill="#B1A092"/>
<rect x="36" y="33" width="3" height="3" fill="white"/>
<rect x="12" y="33" width="3" height="3" fill="white"/>
<rect x="12" y="12" width="3" height="3" fill="#B1A092"/>
<rect x="36" y="12" width="3" height="3" fill="#B1A092"/>
<rect x="36" y="36" width="3" height="3" fill="#EBEBEB"/>
<rect x="12" y="36" width="3" height="3" fill="#EBEBEB"/>
<rect x="12" y="15" width="3" height="3" fill="#EAB2B6"/>
<rect x="36" y="15" width="3" height="3" fill="#B1A092"/>
<rect x="36" y="39" width="3" height="3" fill="#EBEBEB"/>
<rect x="12" y="39" width="3" height="3" fill="white"/>
<rect x="12" y="18" width="3" height="3" fill="#B1A092"/>
<rect x="36" y="18" width="3" height="3" fill="#B1A092"/>
<rect x="36" y="42" width="3" height="3" fill="white"/>
<rect x="12" y="42" width="3" height="3" fill="#EBEBEB"/>
<rect x="12" y="21" width="3" height="3" fill="#B1A092"/>
<rect x="36" y="21" width="3" height="3" fill="#726052"/>
<rect x="36" y="45" width="3" height="3" fill="white"/>
<rect x="12" y="45" width="3" height="3" fill="white"/>
<rect x="12" y="24" width="3" height="3" fill="#726052"/>
<rect x="36" y="24" width="3" height="3" fill="#4865FF"/>
<rect x="12" y="27" width="3" height="3" fill="#726052"/>
<rect x="36" y="27" width="3" height="3" fill="#97A7C7"/>
<rect x="39" y="30" width="3" height="3" fill="#B1A092"/>
<rect x="15" y="30" width="3" height="3" fill="white"/>
<rect x="39" y="9" width="3" height="3" fill="#B1A092"/>
<rect x="39" y="33" width="3" height="3" fill="white"/>
<rect x="15" y="33" width="3" height="3" fill="white"/>
<rect x="15" y="12" width="3" height="3" fill="#B1A092"/>
<rect x="39" y="12" width="3" height="3" fill="#B1A092"/>
<rect x="39" y="36" width="3" height="3" fill="#EBEBEB"/>
<rect x="15" y="36" width="3" height="3" fill="#EBEBEB"/>
<rect x="15" y="15" width="3" height="3" fill="#B1A092"/>
<rect x="39" y="15" width="3" height="3" fill="#EAB2B6"/>
<rect x="39" y="39" width="3" height="3" fill="white"/>
<rect x="15" y="39" width="3" height="3" fill="#EBEBEB"/>
<rect x="15" y="18" width="3" height="3" fill="#B1A092"/>
<rect x="39" y="18" width="3" height="3" fill="#B1A092"/>
<rect x="39" y="42" width="3" height="3" fill="#EBEBEB"/>
<rect x="15" y="42" width="3" height="3" fill="white"/>
<rect x="15" y="21" width="3" height="3" fill="#726052"/>
<rect x="39" y="21" width="3" height="3" fill="#B1A092"/>
<rect x="39" y="45" width="3" height="3" fill="white"/>
<rect x="15" y="45" width="3" height="3" fill="white"/>
<rect x="15" y="24" width="3" height="3" fill="#4865FF"/>
<rect x="39" y="24" width="3" height="3" fill="#726052"/>
<rect x="15" y="27" width="3" height="3" fill="#97A7C7"/>
<rect x="39" y="27" width="3" height="3" fill="#726052"/>
<rect x="42" y="6" width="3" height="3" fill="#B1A092"/>
<rect x="42" y="30" width="3" height="3" fill="#B1A092"/>
<rect x="18" y="30" width="3" height="3" fill="white"/>
<rect x="42" y="9" width="3" height="3" fill="#B1A092"/>
<rect x="42" y="33" width="3" height="3" fill="#B1A092"/>
<rect x="18" y="33" width="3" height="3" fill="white"/>
<rect x="18" y="12" width="3" height="3" fill="#B1A092"/>
<rect x="42" y="12" width="3" height="3" fill="#E196A4"/>
<rect x="42" y="36" width="3" height="3" fill="#EBEBEB"/>
<rect x="18" y="36" width="3" height="3" fill="#EBEBEB"/>
<rect x="18" y="15" width="3" height="3" fill="#B1A092"/>
<rect x="42" y="15" width="3" height="3" fill="#EAB2B6"/>
<rect x="42" y="39" width="3" height="3" fill="white"/>
<rect x="18" y="39" width="3" height="3" fill="#EBEBEB"/>
<rect x="18" y="18" width="3" height="3" fill="#B1A092"/>
<rect x="42" y="18" width="3" height="3" fill="#B1A092"/>
<rect x="42" y="42" width="3" height="3" fill="#EBEBEB"/>
<rect x="18" y="42" width="3" height="3" fill="white"/>
<rect x="18" y="21" width="3" height="3" fill="#726052"/>
<rect x="42" y="21" width="3" height="3" fill="#B1A092"/>
<rect x="18" y="45" width="3" height="3" fill="white"/>
<rect x="18" y="24" width="3" height="3" fill="#1E121C"/>
<rect x="42" y="24" width="3" height="3" fill="#B1A092"/>
<rect x="18" y="27" width="3" height="3" fill="#4865FF"/>
<rect x="42" y="27" width="3" height="3" fill="#B1A092"/>
<rect x="45" y="30" width="3" height="3" fill="#B1A092"/>
<rect x="21" y="30" width="3" height="3" fill="white"/>
<rect x="45" y="9" width="3" height="3" fill="#B1A092"/>
<rect x="45" y="33" width="3" height="3" fill="white"/>
<rect x="21" y="33" width="3" height="3" fill="white"/>
<rect x="45" y="12" width="3" height="3" fill="#B1A092"/>
<rect x="45" y="36" width="3" height="3" fill="#EBEBEB"/>
<rect x="21" y="36" width="3" height="3" fill="white"/>
<rect x="21" y="15" width="3" height="3" fill="#B1A092"/>
<rect x="45" y="15" width="3" height="3" fill="#B1A092"/>
<rect x="45" y="39" width="3" height="3" fill="white"/>
<rect x="21" y="39" width="3" height="3" fill="white"/>
<rect x="21" y="18" width="3" height="3" fill="#B1A092"/>
<rect x="45" y="18" width="3" height="3" fill="#B1A092"/>
<rect x="21" y="42" width="3" height="3" fill="#8B8B8B"/>
<rect x="21" y="21" width="3" height="3" fill="white"/>
<rect x="45" y="21" width="3" height="3" fill="#B1A092"/>
<rect x="45" y="45" width="3" height="3" fill="#EBEBEB"/>
<rect x="21" y="45" width="3" height="3" fill="white"/>
<rect x="21" y="24" width="3" height="3" fill="white"/>
<rect x="45" y="24" width="3" height="3" fill="#B1A092"/>
<rect x="21" y="27" width="3" height="3" fill="white"/>
<rect x="45" y="27" width="3" height="3" fill="#B1A092"/>
<rect x="24" y="30" width="3" height="3" fill="white"/>
<rect x="24" y="33" width="3" height="3" fill="#E196A4"/>
<rect x="24" y="36" width="3" height="3" fill="white"/>
<rect x="24" y="15" width="3" height="3" fill="#B1A092"/>
<rect x="24" y="39" width="3" height="3" fill="#8B8B8B"/>
<rect x="24" y="18" width="3" height="3" fill="white"/>
<rect x="24" y="42" width="3" height="3" fill="white"/>
<rect x="24" y="21" width="3" height="3" fill="white"/>
<rect x="24" y="45" width="3" height="3" fill="white"/>
<rect x="24" y="24" width="3" height="3" fill="white"/>
<rect x="24" y="27" width="3" height="3" fill="white"/>
</svg>
